<?xml version="1.0" standalone="no"?><!DOCTYPE svg PUBLIC "-//W3C//DTD SVG 1.1//EN" "http://www.w3.org/Graphics/SVG/1.1/DTD/svg11.dtd"><svg t="1566291050523" class="icon" viewBox="0 0 1024 1024" version="1.1" xmlns="http://www.w3.org/2000/svg" p-id="5055" width="32" height="32" xmlns:xlink="http://www.w3.org/1999/xlink"><defs><style type="text/css"></style></defs><path d="M774.8 356.4c0-142.7-113.6-258.2-253.7-258.2S267.4 213.8 267.4 356.4c0 96 39.1 174.5 115.6 219-134.8 44.3-224.8 168.2-241.8 315.5-2.3 19.6 13 36.9 32.8 36.9 16.8 0 30.9-12.5 32.8-29.2 18.4-158.1 137.7-280.7 297.8-283.5l6.3-1.5c3.5 0.1 6.8 1.1 10.3 1.1 140.1-0.1 253.6-115.7 253.6-258.3zM521.1 548.8c-104.5 0-189.2-86.1-189.2-192.5 0-106.3 84.7-192.5 189.2-192.5S710.3 250 710.3 356.3s-84.8 192.5-189.2 192.5zM881 888.5c-15.5-94.4-65.2-176.9-135.7-233.8-4.7-5.5-26.1-21.5-46.1-15.5-17.4 6.5-21.3 22.8-21.3 22.8-5.5 16.8 12.9 32 16.8 34.9 62 49.8 105.4 120.1 118.5 202.4 2.7 16.7 17 29 33.9 29 21.2 0 37.4-19 33.9-39.8z" fill="#ffffff" p-id="5056"></path></svg>