<?xml version="1.0" encoding="utf-8"?>
<!-- Generator: Adobe Illustrator 22.0.0, SVG Export Plug-In . SVG Version: 6.00 Build 0)  -->
<svg version="1.1" id="图层_1" xmlns="http://www.w3.org/2000/svg" xmlns:xlink="http://www.w3.org/1999/xlink" x="0px" y="0px"
	 viewBox="0 0 200 200" style="enable-background:new 0 0 200 200;" xml:space="preserve">
<style type="text/css">
	.st0{fill:#178DF1;}
</style>
<path class="st0" d="M105.7,52.3c-2.6,0-5,1-6.8,2.8c-1.8,1.8-2.9,4.2-2.8,6.7c0,2.6,0.9,4.9,2.8,6.7c1.9,1.9,4.1,2.8,6.8,2.8
	c2.5,0,5-1,6.8-2.8c1.8-1.8,2.8-4.2,2.8-6.7c0-2.5-1-5-2.8-6.7C110.7,53.3,108.3,52.2,105.7,52.3z M109,138.8c-1.9,0-3.2-0.4-4-1.3
	c-0.8-0.9-1.1-2.5-1.1-4.9c0.2-3.1,0.5-6.3,1.1-9.3l3.6-18.3c0.4-1.7,0.6-3.5,0.7-5.6c0.1-2,0.2-3.4,0.2-4.2c0-3.9-1-7-2.8-9.5
	s-4.6-3.6-8.1-3.6c-1.9,0-4,0.5-6.1,1.5c-2.2,1-4.4,2.2-6.8,3.6l-1,5.7c0.8-0.5,1.6-0.9,2.5-1.2c0.9-0.4,1.9-0.6,2.9-0.7
	c1.9,0,3.2,0.5,3.9,1.4c0.7,0.9,1,2.5,1,4.9c0,1.3-0.1,2.7-0.3,4.3c-0.2,1.7-0.5,3.4-0.8,5L90.3,125c-0.3,1.7-0.5,3.5-0.7,5.2
	c-0.1,1.5-0.2,3-0.2,4.5c0,3.8,1,6.9,2.9,9.4c1.9,2.4,4.7,3.7,8.2,3.7c2.3,0,4.3-0.4,6-1.3c1.7-0.8,4-2.1,6.9-3.7l1-5.7
	c-0.5,0.3-1.3,0.7-2.4,1.2C111,138.6,110,138.8,109,138.8L109,138.8z M100.9,14.3c-46.9,0-86.6,40-86.6,86.7s39.7,84.7,86.6,84.7
	s84.9-37.9,84.9-84.7S147.7,14.3,100.9,14.3z M100.8,174.5c-19.8,0-38.8-7.8-53-21.6c-14.4-14-22.3-32.4-22.3-51.9
	c0-19.7,8-38.5,22.4-53c14.5-14.5,33.2-22.5,52.9-22.5c19.5,0,38,8,52.1,22.4c13.9,14.2,21.6,33.2,21.7,53
	C174.5,141.5,141.4,174.5,100.8,174.5z"/>
<path class="st0" d="M100.9,184.7c-22.5,0-43.9-8.7-60.2-24.5c-16.4-15.9-25.4-36.9-25.4-59.2c0-46.5,39.2-85.7,85.6-85.7
	c22.3,0,43.3,9.1,59.3,25.5c15.8,16.3,24.6,37.7,24.6,60.2C184.7,147.2,147.1,184.7,100.9,184.7z M100.8,24.5
	c-19.9,0-39,8.1-53.6,22.8C32.6,62,24.5,81,24.5,101c0,19.8,8,38.5,22.6,52.7c14.4,14.1,33.5,21.9,53.6,21.9
	c41.2,0,74.7-33.4,74.7-74.5c0-20.2-7.8-39.3-21.9-53.7C139.4,32.6,120.6,24.5,100.8,24.5z M100.4,146.7c-3.2,0-5.6-1.1-7.4-3.3
	c-1.8-2.3-2.7-5.2-2.7-8.8c0-1.4,0.1-2.9,0.2-4.4c0.2-1.7,0.4-3.4,0.7-5.1l3.6-18.4c0.3-1.7,0.6-3.4,0.8-5.1
	c0.2-1.6,0.3-3.1,0.3-4.4c0-2.6-0.4-4.4-1.2-5.5c-0.9-1.2-2.5-1.8-4.7-1.8c-1.2,0-2.3,0.3-3.3,0.8c-0.3,0.1-0.5,0.2-0.8,0.3l0.6-3.3
	c2.1-1.2,4.2-2.3,6.3-3.3c2-0.9,4-1.4,5.7-1.4c3.2,0,5.6,1.1,7.3,3.2c1.7,2.2,2.6,5.2,2.6,8.8c0,0.5,0,1.7-0.2,4.1
	c-0.2,2.2-0.4,3.9-0.7,5.4L104,123c-0.6,3.1-1,6.3-1.2,9.5c0,2.7,0.5,4.6,1.4,5.6c1,1.1,2.5,1.7,4.7,1.7c1.2,0,2.3-0.3,3.4-0.7
	c0.2-0.1,0.5-0.2,0.7-0.3l-0.6,3.2c-2.7,1.6-4.9,2.7-6.5,3.5C104.4,146.3,102.6,146.7,100.4,146.7z M105.7,70.3
	c-2.4,0-4.4-0.8-6.1-2.5c-1.7-1.7-2.5-3.6-2.5-6c0-2.3,0.9-4.5,2.5-6c1.6-1.6,3.7-2.5,5.9-2.5l0.3,0c2.2,0,4.4,0.9,5.9,2.5
	c1.6,1.6,2.6,3.8,2.5,6c0,2.3-0.9,4.5-2.5,6c-1.6,1.6-3.7,2.5-5.9,2.5C105.9,70.3,105.7,70.3,105.7,70.3z"/>
</svg>
