<?xml version="1.0" encoding="utf-8"?>
<!-- Generator: Adobe Illustrator 22.0.0, SVG Export Plug-In . SVG Version: 6.00 Build 0)  -->
<svg version="1.1" id="图层_1" xmlns="http://www.w3.org/2000/svg" xmlns:xlink="http://www.w3.org/1999/xlink" x="0px" y="0px"
	 viewBox="0 0 200 200" style="enable-background:new 0 0 200 200;" xml:space="preserve">
<style type="text/css">
	.st0{fill:#178DF1;}
</style>
<path class="st0" d="M137.7,187.4H24.8c-6.9,0-12.5-5.6-12.5-12.5V24.8c0-6.9,5.6-12.5,12.5-12.5h112.9c6.9,0,12.5,5.6,12.5,12.5
	v24.5h-11V24.8c0-0.8-0.7-1.5-1.5-1.5H24.8c-0.8,0-1.5,0.7-1.5,1.5v150.1c0,0.8,0.7,1.5,1.5,1.5h112.9c0.8,0,1.5-0.7,1.5-1.5v-22.8
	h11v22.8C150.2,181.8,144.6,187.4,137.7,187.4L137.7,187.4z"/>
<path class="st0" d="M77.9,118.6H53.8c-3,0-5.5-2.5-5.5-5.5c0-3,2.5-5.5,5.5-5.5h24.1c3,0,5.5,2.5,5.5,5.5
	C83.4,116.2,80.9,118.6,77.9,118.6L77.9,118.6z M93.4,167.3c-1.3,0-2.5-0.5-3.5-1.3c-1.6-1.3-2.3-3.4-1.8-5.5l8.6-36.3
	c0.2-0.8,0.6-1.6,1.1-2.2l55.6-67.7c0.9-1.1,2.1-1.8,3.5-2c14.9-2,28.4,8.6,30.4,23.1c0.2,1.4-0.2,2.9-1.1,4.1l-54,70.6
	c-0.6,0.7-1.3,1.3-2.2,1.7l-34.4,14.9C94.9,167.2,94.1,167.3,93.4,167.3L93.4,167.3z M107,128.1l-5.8,24.4l23-10l51.6-67.5
	c-1.9-6.9-8.4-11.8-15.6-11.8L107,128.1L107,128.1z"/>
<path class="st0" d="M168.3,98.8c-2.7,0-5.1-2-5.4-4.7c-0.6-4.2-2.8-8-6.2-10.6c-3.4-2.6-7.6-3.7-11.9-3.1c-3,0.4-5.8-1.7-6.2-4.7
	c-0.4-3,1.7-5.8,4.7-6.2c7.1-1,14.2,0.9,20,5.2c5.7,4.4,9.4,10.7,10.4,17.8c0.4,3-1.7,5.8-4.7,6.2C168.8,98.8,168.6,98.8,168.3,98.8
	L168.3,98.8z M125.4,148.8c-2.7,0-5-2-5.4-4.7c-0.5-3.5-2.3-6.6-5.1-8.7c-2.8-2.1-6.3-3-9.8-2.6c-3,0.4-5.8-1.7-6.2-4.7c0,0,0,0,0,0
	c-0.4-3,1.7-5.8,4.7-6.2c6.4-0.9,12.7,0.8,17.9,4.7c5.1,3.9,8.5,9.6,9.3,16c0.4,3-1.7,5.8-4.7,6.2
	C125.9,148.8,125.6,148.8,125.4,148.8L125.4,148.8z M106.5,89H53.8c-3,0-5.5-2.5-5.5-5.5c0-3,2.5-5.5,5.5-5.5h52.7
	c3,0,5.5,2.5,5.5,5.5C112,86.5,109.6,89,106.5,89z M106.5,60.4H53.8c-3,0-5.5-2.5-5.5-5.5c0-3,2.5-5.5,5.5-5.5h52.7
	c3,0,5.5,2.5,5.5,5.5C112,58,109.6,60.4,106.5,60.4z"/>
</svg>
