<?xml version="1.0" encoding="utf-8"?>
<!-- Generator: Adobe Illustrator 22.0.0, SVG Export Plug-In . SVG Version: 6.00 Build 0)  -->
<svg version="1.1" id="图层_1" xmlns="http://www.w3.org/2000/svg" xmlns:xlink="http://www.w3.org/1999/xlink" x="0px" y="0px"
	 viewBox="0 0 200 200" style="enable-background:new 0 0 200 200;" xml:space="preserve">
<style type="text/css">
	.st0{fill:#178DF1;}
</style>
<path class="st0" d="M100,199c-54.6,0-99-44.4-99-99S45.4,1,100,1s99,44.4,99,99S154.6,199,100,199z M100,12.3
	c-48.3,0-87.7,39.3-87.7,87.7s39.3,87.7,87.7,87.7s87.7-39.3,87.7-87.7S148.3,12.3,100,12.3z"/>
<path class="st0" d="M102.6,51.1c9.1,0,16.5,2.4,22.2,7.5c5.7,5,8.5,11.8,8.5,20.3c0,7-1.8,12.8-5.4,17.3
	c-1.3,1.6-5.3,5.3-11.9,11.1c-2.7,2.3-4.7,4.8-6,7.4c-1.6,2.8-2.3,6-2.3,9.4v2.4H92.5v-2.4c0-5.3,0.8-9.8,2.8-13.5
	c1.9-4,7.3-9.8,16.1-17.6l2.4-2.7c2.6-3.3,4-6.7,4-10.4c0-5-1.4-8.8-4.1-11.7c-2.8-2.8-7-4.3-12.1-4.3c-6.4,0-11.1,2-13.9,6.1
	c-2.6,3.4-3.8,8.3-3.8,14.5H68.8c0-10.4,3-18.5,9-24.5C83.8,54.1,92.1,51.1,102.6,51.1L102.6,51.1z M100,134.3c3,0,5.5,0.8,7.5,2.8
	c2,1.9,3,4.3,3,7.3c0,3-1.1,5.4-3.1,7.4c-2,1.9-4.7,2.9-7.4,2.8c-2.8,0-5.4-1-7.4-3c-2-1.9-3-4.5-3-7.3c0-3,1-5.4,3-7.3
	C94.6,135.2,97.2,134.3,100,134.3L100,134.3z"/>
</svg>
