<?xml version="1.0" standalone="no"?><!DOCTYPE svg PUBLIC "-//W3C//DTD SVG 1.1//EN" "http://www.w3.org/Graphics/SVG/1.1/DTD/svg11.dtd"><svg class="icon" width="200px" height="199.80px" viewBox="0 0 1025 1024" version="1.1" xmlns="http://www.w3.org/2000/svg"><path d="M874.056001 149.952c-199.936-199.936-524.128-199.936-724.096 0.032s-199.936 524.096 0.032 724.032c199.968 199.968 524.128 199.968 724.064 0.064s199.968-524.16 0-724.128zM628.328001 640.096c-51.936 51.936-93.088 106.208-119.712 154.752-26.624-48.544-67.776-102.816-119.712-154.752s-106.208-93.088-154.752-119.712c48.544-26.624 102.816-67.776 154.752-119.712s93.088-106.208 119.712-154.752c26.624 48.544 67.776 102.816 119.712 154.752s106.208 93.088 154.752 119.712c-48.512 26.624-102.816 67.808-154.752 119.712z" fill="#ffb044" /></svg>