<?xml version="1.0" encoding="utf-8"?>
<!-- Generator: Adobe Illustrator 22.0.0, SVG Export Plug-In . SVG Version: 6.00 Build 0)  -->
<svg version="1.1" id="图层_1" xmlns="http://www.w3.org/2000/svg" xmlns:xlink="http://www.w3.org/1999/xlink" x="0px" y="0px"
	 viewBox="0 0 200 200" style="enable-background:new 0 0 200 200;" xml:space="preserve">
<style type="text/css">
	.st0{fill:#178DF1;}
</style>
<path class="st0" d="M160.9,15.5H39.1c-14.6,0-26.6,12-26.6,26.6v115.8c0,14.6,12,26.6,26.6,26.6h121.8c14.6,0,26.6-12,26.6-26.6
	V42.1C187.5,27.5,176.3,15.5,160.9,15.5L160.9,15.5z M176.6,158.8c0,7.7-6,15.7-13.7,15.7H37.1c-7.7,0-13.7-6-13.7-13.7V40.1
	c0-7.7,6-13.7,13.7-13.7h125.8c7.7,0,13.7,6,13.7,13.7L176.6,158.8L176.6,158.8z M76.8,57.5L58,76.4l-8.6-8.6
	c-2.6-2.6-6.9-2.6-8.6,0c-2.6,2.6-2.6,6.9,0,8.6l13.7,13.7c0.9,0.9,2.6,1.7,5.2,1.7s2.6-0.9,5.2-1.7L88,67c2.6-2.6,2.6-6.9,0-8.6
	C82.9,55.8,79.4,55.8,76.8,57.5z M155.8,67.8H96.6c-4.3,0-6,2.6-6,6c0,4.3,2.6,6,6,6h59.2c4.3,0,6-2.6,6-6S159.2,67.8,155.8,67.8z
	 M61.4,106.4c-11.2,0-19.7,8.6-19.7,19.7s8.6,19.7,19.7,19.7s19.7-8.6,19.7-19.7C81.1,114.2,71.7,106.4,61.4,106.4z M61.4,132.2
	c-4.3,0-6.9-2.6-6.9-6.9c0-4.3,2.6-6.9,6.9-6.9c4.3,0,6.9,2.6,6.9,6.9C68.3,129.6,64.8,132.2,61.4,132.2z M155.8,119.3H96.6
	c-4.3,0-6,2.6-6,6s2.6,6,6,6h59.2c4.3,0,6-2.6,6-6S159.2,119.3,155.8,119.3z"/>
</svg>
