<?xml version="1.0" encoding="utf-8"?>
<!-- Generator: Adobe Illustrator 22.0.0, SVG Export Plug-In . SVG Version: 6.00 Build 0)  -->
<svg version="1.1" id="图层_1" xmlns="http://www.w3.org/2000/svg" xmlns:xlink="http://www.w3.org/1999/xlink" x="0px" y="0px"
	 viewBox="0 0 200 200" style="enable-background:new 0 0 200 200;" xml:space="preserve">
<style type="text/css">
	.st0{fill:#178DF1;}
</style>
<path class="st0" d="M33.7,191.9c-13.4,0-24.4-10.9-24.4-24.4V51.7c0-13.4,10.9-24.4,24.4-24.4h89.5l-9.3,9.7l-74.2-0.1
	c-11.3,0-19.5,8.3-19.5,19.7l-0.1,107.2c0,11.3,7.7,18.9,19,18.9h110.7c10.9,0,18-7.6,18-19.4l0.1-76.9l10.6-10.8v91.9
	c0,13.4-10.9,24.4-24.4,24.4H33.7z M60.8,104.6l-0.1-0.1L131.6,26l0,0l10.7-11.8c2.1-2.3,5-3.6,8.1-3.6c2.7,0,5.3,1,7.4,2.8
	l29.3,26.5c4.5,4.1,4.8,11,0.8,15.5l-15.7,17.4l0,0l-65.4,72.4l0.4,0.4l-49.3,6.6L60.8,104.6z M67.3,141.6l30.7-3.3l-27.8-25.2
	L67.3,141.6z M104.7,131.9l57.8-64l-29.9-27.1l-57.8,64L104.7,131.9z M169.6,60.5l6-6.6c2.4-2.7,2.2-6.4-0.5-8.8L154,25.9
	c-1.1-1-2.5-1.6-3.9-1.6c-1.7,0-3.4,0.8-4.7,2.3l-5.9,6.5L169.6,60.5z"/>
</svg>
