<?xml version="1.0" standalone="no"?><!DOCTYPE svg PUBLIC "-//W3C//DTD SVG 1.1//EN" "http://www.w3.org/Graphics/SVG/1.1/DTD/svg11.dtd"><svg t="1558005958514" class="icon" style="" viewBox="0 0 1024 1024" version="1.1" xmlns="http://www.w3.org/2000/svg" p-id="2003" xmlns:xlink="http://www.w3.org/1999/xlink" width="300" height="300"><defs><style type="text/css"></style></defs><path d="M941.866667 617.155556 887.666667 617.155556c-8.788889 31.877778-21.488889 62.155556-37.655556 90.177778l50.088889 50.155556c32.066667 32.066667 32.066667 84.088889 0 116.155556l-29.055556 29.055556c-32.066667 32.066667-84.088889 32.066667-116.155556 0l-50.411111-50.411111c-27.966667 15.911111-58.111111 28.344444-89.855556 37.011111l0 52.6c0 45.344444-36.755556 82.1-82.1 82.1l-41.044444 0c-45.344444 0-82.1-36.755556-82.1-82.1l0-52.6c-31.744444-8.655556-61.9-21.033333-89.855556-37.011111l-50.411111 50.411111c-32.066667 32.066667-84.088889 32.066667-116.155556 0l-29.055556-29.122222c-32.066667-32.066667-32.066667-84.088889 0-116.155556l50.088889-50.155556c-16.166667-28.033333-28.8-58.3-37.655556-90.177778l-54.2 0c-45.344444 0-82.1-36.755556-82.1-82.1l0-41.044444c0-45.344444 36.755556-82.1 82.1-82.1l53.555556 0c8.533333-31.622222 20.655556-61.7 36.366667-89.544444l-48.166667-48.233333c-32.066667-32.066667-32.066667-84.088889 0-116.155556l28.988889-29.055556c32.066667-32.066667 84.088889-32.066667 116.155556 0l47.266667 47.266667c28.866667-16.8 60.033333-29.888889 93-38.866667L409.3 82.1C409.311111 36.755556 446.066667 0 491.411111 0l41.044444 0c45.344444 0 82.1 36.755556 82.1 82.1l0 55.155556c32.966667 8.977778 64.2 22.133333 93.066667 38.933333l47.211111-47.266667c32.066667-32.066667 84.088889-32.066667 116.155556 0l29.055556 29.055556c32.066667 32.066667 32.066667 84.088889 0 116.155556l-48.1 48.166667c15.711111 27.9 27.833333 57.977778 36.366667 89.544444l53.555556 0c45.344444 0 82.1 36.755556 82.1 82.1l0 41.044444C1023.966667 580.4 987.211111 617.155556 941.866667 617.155556zM512 254.577778c-144.255556 0-261.177778 116.922222-261.177778 261.177778S367.744444 776.933333 512 776.933333 773.244444 660 773.244444 515.755556 656.244444 254.577778 512 254.577778zM512 615.877778c-56.7 0-102.688889-45.988889-102.688889-102.688889s45.988889-102.622222 102.688889-102.622222 102.622222 45.988889 102.622222 102.622222C614.622222 569.888889 568.7 615.877778 512 615.877778z" p-id="2004"></path></svg>