<?xml version="1.0" standalone="no"?><!DOCTYPE svg PUBLIC "-//W3C//DTD SVG 1.1//EN" "http://www.w3.org/Graphics/SVG/1.1/DTD/svg11.dtd"><svg t="1558068359780" class="icon" style="" viewBox="0 0 1025 1024" version="1.1" xmlns="http://www.w3.org/2000/svg" p-id="1739" xmlns:xlink="http://www.w3.org/1999/xlink" width="300.29296875" height="300"><defs><style type="text/css"></style></defs><path d="M 1003.71 387.5 C 881.839 -19.875 491.839 0.875 491.839 0.875 c 547 268.375 301.375 648.5 301.375 648.5 L 475.839 325.25 l 121.25 -132.625 l -82.875 -76.75 l -65.5 59.125 l -122.75 -1.5 l -250.25 254 l 151.5 137.375 l 94.125 -91 L 644.964 788.5 C 370.589 968.875 120.339 671.875 120.339 671.875 l -98.75 86.25 L 96.464 846 l -12.875 17.5 c -35 -3.25 -49.375 12.75 -49.375 12.75 c -86.125 83.125 17.5 129.375 17.5 129.375 c 100.625 22.375 95.75 -81.5 95.75 -81.5 l 19.125 -23.875 c 378 204.375 601.125 20.75 601.125 20.75 l 108.375 102.25 l 148.25 -148.625 l -97.25 -105.5 s 132.5 -194.5 76.625 -381.625 Z m 0 0" fill="#d81e06" p-id="1740"></path></svg>