<?xml version="1.0" standalone="no"?><!DOCTYPE svg PUBLIC "-//W3C//DTD SVG 1.1//EN" "http://www.w3.org/Graphics/SVG/1.1/DTD/svg11.dtd"><svg t="1565248284747" class="icon" viewBox="0 0 1024 1024" version="1.1" xmlns="http://www.w3.org/2000/svg" p-id="1421" xmlns:xlink="http://www.w3.org/1999/xlink" width="200" height="200"><defs><style type="text/css"></style></defs><path d="M917.8 413.6c-14.1-43.3-62.6-64.7-104.1-46L556.8 483.8l31.1-280.2c5-45.2-30.4-84.8-75.9-84.8s-80.9 39.6-75.9 84.8l31.1 280.2-256.9-116.2c-41.5-18.8-90 2.7-104.1 46-14.1 43.3 12.6 89.2 57.2 98.4l276.1 57-189.8 208.4c-30.7 33.6-25.3 86.5 11.6 113.2s88.7 15.6 111.3-24l139.5-245 139.5 245c22.5 39.6 74.4 50.8 111.3 24S805 811 774.3 777.4L584.4 569l276.1-57c44.7-9.2 71.4-55.1 57.3-98.4z" p-id="1422"></path></svg>