<?xml version="1.0" standalone="no"?><!DOCTYPE svg PUBLIC "-//W3C//DTD SVG 1.1//EN" "http://www.w3.org/Graphics/SVG/1.1/DTD/svg11.dtd"><svg t="1558086665053" class="icon" style="" viewBox="0 0 1024 1024" version="1.1" xmlns="http://www.w3.org/2000/svg" p-id="2504" xmlns:xlink="http://www.w3.org/1999/xlink" width="300" height="300"><defs><style type="text/css"></style></defs><path d="M936.9 451.3c23.1-81.8 15.1-161.5-25.4-217.9C866.8 171.3 801 140 724.4 140c-72.5 0-138.7 35-195.1 98.4C472.9 175 406.7 140 334.2 140 250 140 167.4 184.7 130 264.1c6.6 16.1 38 35.5 69.2 52.3 27.6-71.4 85.5-90.1 135-90.1 74.6 0 152.9 59 195 153.5 43.2-95.9 123.1-153.5 195.1-153.5 49.5 0 93.9 21.4 118.7 57.2 29.5 42.6 39.1 100.9 4 168.1 33.8-3.4 65.6-2.4 89.9-0.3z" fill="#d81e06" p-id="2505"></path><path d="M959.3 490.8c-35.7-5.2-202.3-23.7-240.1 71.5 1.2-18.7 1.2-33.9 12.2-48.5-113.8 61.6-121.9 193.7-188.9 282.4-16.6-107-77-220.8-124.7-282.7-34.4-44.6-74.2-90.7-102.8-134.4 0.8 19-4 41.1-3.3 60.1-47.2-66.4-252.4-104.7-222.8-197.7-44.6 64.9-25.7 229.4 17.9 297.3C173 641.8 301.6 669 393.7 739.4c45.6 34.8 94.4 78.6 135.6 143 66.5-100.6 136.9-144.6 195.6-186.5 41.2-29.5 73.5-53.8 109.1-90.5 41-42.3 57.7-108.2 125.3-114.6z" fill="#d81e06" p-id="2506"></path></svg>