<svg xmlns="http://www.w3.org/2000/svg" xmlns:xlink="http://www.w3.org/1999/xlink" viewBox="0 0 38 38"><defs><style>.cls-1{fill:none;}.cls-2{clip-path:url(#clip-path);}.cls-3{fill:#2196f3;}.cls-4{fill:#263238;}.cls-5{fill:#cfd8dc;}.cls-6{fill:#b0bec5;}.cls-7{fill:#eceff1;}</style><clipPath id="clip-path"><rect class="cls-1" x="0.09" y="3.67" width="37.82" height="30.67"/></clipPath></defs><title>画板 72</title><g id="政务咨询"><g id="图层_97" data-name="图层 97"><g class="cls-2"><rect class="cls-3" x="0.09" y="6.4" width="37.79" height="26.09"/></g><path class="cls-3" d="M14.48,29.79a4.5,4.5,0,1,0,4.5-4.5,4.51,4.51,0,0,0-4.5,4.5Zm0,0"/><path class="cls-4" d="M17.07,31.7a2.7,2.7,0,1,0-.7-2.61,2.73,2.73,0,0,0,.7,2.61Zm0,0"/><path class="cls-5" d="M33.38,3.7,19.88,6.4h-1.8L4.58,3.7,2.78,8.19v21.6h32.4V8.19Zm0,0"/><path class="cls-6" d="M4.58,27.09h13.5v2.7h1.8v-2.7h13.5l1.8,2.7H2.79ZM19.88,6.4h-1.8V29.79h1.8Zm0,0"/><path class="cls-7" d="M33.38,27.09s-13.5,0-13.5,2.7V6.39c0-2.69,13.5-2.69,13.5-2.69Zm-28.8,0s13.5,0,13.5,2.7V6.39c0-2.69-13.5-2.69-13.5-2.69Zm0,0"/><path class="cls-3" d="M15.49,8.52c-2.45-1-8.91-.91-8.91-.91V6.23s6.94.06,8.91,1C15.49,7.68,15.5,8,15.49,8.52Z"/><path class="cls-3" d="M15.49,11.52c-2.45-1-8.91-.91-8.91-.91V9.23s6.94.06,8.91,1C15.49,10.68,15.5,11,15.49,11.52Z"/><path class="cls-3" d="M15.49,14.52c-2.45-1-8.91-.91-8.91-.91V12.23s6.94.06,8.91,1C15.49,13.68,15.5,14,15.49,14.52Z"/><path class="cls-3" d="M22.27,8.58c2.45-1,8.91-.91,8.91-.91V6.29s-6.93.06-8.9,1C22.26,7.74,22.26,8.1,22.27,8.58Z"/><path class="cls-3" d="M22.27,11.58c2.45-1,8.91-.91,8.91-.91V9.29s-6.93.06-8.9,1C22.26,10.74,22.26,11.1,22.27,11.58Z"/><path class="cls-3" d="M15.49,17.52c-2.45-1-8.91-.91-8.91-.91V15.23s6.94.06,8.91,1C15.49,16.68,15.5,17,15.49,17.52Z"/><path class="cls-3" d="M15.49,20.52c-2.45-1-8.91-.91-8.91-.91V18.23s6.94.06,8.91,1C15.49,19.68,15.5,20,15.49,20.52Z"/><path class="cls-3" d="M15.49,23.52c-2.45-1-8.91-.91-8.91-.91V21.23s6.94.06,8.91,1C15.49,22.68,15.5,23,15.49,23.52Z"/><path class="cls-3" d="M30.41,17l-1.89,2.47v1.42H26.23V19.29l2.33-2.81V16c0-.15-.1-.22-.3-.22H25.18V17.3H23.56V14h6a1,1,0,0,1,.63.2.58.58,0,0,1,.25.47ZM26.22,23.8V21.33h1.37a1,1,0,0,1,.63.2.58.58,0,0,1,.25.47v1.8Z"/></g></g></svg>